<svg width="20" height="21" viewBox="0 0 20 21" fill="none" xmlns="http://www.w3.org/2000/svg">
<path fill-rule="evenodd" clip-rule="evenodd" d="M6.84209 5.20684C6.84209 4.36932 7.17479 3.56609 7.76701 2.97387C8.35923 2.38165 9.16246 2.04895 9.99998 2.04895C10.8375 2.04895 11.6407 2.38165 12.233 2.97387C12.8252 3.56609 13.1579 4.36932 13.1579 5.20684C13.1579 6.04437 12.8252 6.84759 12.233 7.43981C11.6407 8.03203 10.8375 8.36474 9.99998 8.36474C9.16246 8.36474 8.35923 8.03203 7.76701 7.43981C7.17479 6.84759 6.84209 6.04437 6.84209 5.20684ZM9.99998 0.996315C8.88328 0.996315 7.81232 1.43992 7.02269 2.22955C6.23306 3.01918 5.78945 4.09014 5.78945 5.20684C5.78945 6.32354 6.23306 7.39451 7.02269 8.18413C7.81232 8.97376 8.88328 9.41737 9.99998 9.41737C11.1167 9.41737 12.1876 8.97376 12.9773 8.18413C13.7669 7.39451 14.2105 6.32354 14.2105 5.20684C14.2105 4.09014 13.7669 3.01918 12.9773 2.22955C12.1876 1.43992 11.1167 0.996315 9.99998 0.996315ZM15.8737 13.7858C17.0526 14.6489 17.8 16.1437 17.8842 18.8911H2.11577C2.19998 16.1542 2.94735 14.6489 4.11577 13.7858C5.43156 12.8384 7.3684 12.5753 9.99998 12.5753C12.6316 12.5753 14.5789 12.8489 15.8737 13.7858ZM9.99998 11.5226C7.3684 11.5226 5.10524 11.7753 3.50524 12.9437C1.86314 14.1332 1.05261 16.1858 1.05261 19.4174V19.9437H18.9473V19.4174C18.9473 16.1858 18.1368 14.1332 16.4947 12.9437C14.8947 11.7858 12.6316 11.5226 9.99998 11.5226Z" fill="#121212"/>
</svg>
