<svg width="11" height="7" viewBox="0 0 11 7" fill="none" xmlns="http://www.w3.org/2000/svg">
<path fill-rule="evenodd" clip-rule="evenodd" d="M9.5425 1.116C9.49605 1.06944 9.44088 1.0325 9.38013 1.00729C9.31939 0.982083 9.25426 0.969109 9.1885 0.969109C9.12273 0.969109 9.05761 0.982083 8.99686 1.00729C8.93612 1.0325 8.88094 1.06944 8.8345 1.116L5.1885 4.763L1.5425 1.116C1.44861 1.02212 1.32127 0.969371 1.1885 0.969371C1.05572 0.969371 0.928384 1.02212 0.834498 1.116C0.740611 1.20989 0.687866 1.33723 0.687866 1.47C0.687866 1.60278 0.740611 1.73012 0.834498 1.824L4.8345 5.824C4.88094 5.87057 4.93612 5.90751 4.99686 5.93271C5.05761 5.95792 5.12273 5.9709 5.1885 5.9709C5.25427 5.9709 5.31939 5.95792 5.38013 5.93271C5.44088 5.90751 5.49605 5.87057 5.5425 5.824L9.5425 1.824C9.58906 1.77756 9.626 1.72238 9.65121 1.66164C9.67642 1.60089 9.68939 1.53577 9.68939 1.47C9.68939 1.40424 9.67642 1.33911 9.65121 1.27837C9.626 1.21762 9.58906 1.16245 9.5425 1.116Z" fill="#121212" fill-opacity="0.75"/>
</svg>
