<svg width="20" height="21" viewBox="0 0 20 21" fill="none" xmlns="http://www.w3.org/2000/svg">
<path fill-rule="evenodd" clip-rule="evenodd" d="M12.1369 12.7647C11.5715 13.3301 10.9003 13.7786 10.1616 14.0846C9.42293 14.3906 8.6312 14.548 7.83164 14.548C7.03207 14.548 6.24034 14.3906 5.50164 14.0846C4.76295 13.7786 4.09175 13.3301 3.52637 12.7647C2.961 12.1994 2.51252 11.5282 2.20654 10.7895C1.90056 10.0508 1.74307 9.25904 1.74307 8.45948C1.74307 7.65992 1.90056 6.86818 2.20654 6.12949C2.51252 5.39079 2.961 4.71959 3.52637 4.15421C4.6682 3.01239 6.21685 2.37092 7.83164 2.37092C9.44642 2.37092 10.9951 3.01239 12.1369 4.15421C13.2787 5.29604 13.9202 6.84469 13.9202 8.45948C13.9202 10.0743 13.2787 11.6229 12.1369 12.7647ZM12.4106 13.9437C10.9946 15.1296 9.17393 15.7204 7.33139 15.5918C5.48885 15.4632 3.76792 14.6253 2.53035 13.2542C1.29278 11.8831 0.634977 10.0856 0.695206 8.23952C0.755434 6.39348 1.52901 4.64268 2.85331 3.35516C4.17762 2.06764 5.94951 1.34368 7.79651 1.33547C9.64352 1.32725 11.4218 2.03542 12.7575 3.31111C14.0932 4.5868 14.8823 6.33065 14.9589 8.17608C15.0356 10.0215 14.3938 11.8248 13.1685 13.2068L18.8527 18.8911C18.9074 18.9386 18.9517 18.997 18.9828 19.0625C19.0139 19.128 19.0312 19.1993 19.0334 19.2718C19.0357 19.3443 19.023 19.4164 18.996 19.4838C18.9691 19.5511 18.9285 19.6121 18.8769 19.6631C18.8253 19.714 18.7636 19.7537 18.6959 19.7796C18.6282 19.8056 18.5559 19.8173 18.4834 19.814C18.411 19.8107 18.34 19.7925 18.2749 19.7605C18.2099 19.7284 18.1521 19.6833 18.1053 19.6279L12.4106 13.9437Z" fill="#121212"/>
</svg>
