<svg width="21" height="20" viewBox="0 0 21 20" fill="none" xmlns="http://www.w3.org/2000/svg">
<path fill-rule="evenodd" clip-rule="evenodd" d="M5.32499 0.449997H1.84899L1.00199 13.21C0.950722 13.9622 1.05465 14.7169 1.3073 15.4272C1.55996 16.1375 1.95596 16.7883 2.47071 17.3392C2.98545 17.89 3.60795 18.3291 4.29955 18.6293C4.99115 18.9295 5.73707 19.0842 6.49099 19.084H14.609C15.3619 19.0841 16.1069 18.9297 16.7977 18.6302C17.4885 18.3307 18.1104 17.8926 18.625 17.3429C19.1396 16.7933 19.5359 16.1438 19.7892 15.4348C20.0426 14.7258 20.1477 13.9723 20.098 13.221L19.24 0.449997H5.32499ZM5.32499 1.55H2.88299L2.10199 13.287C2.0613 13.8884 2.14461 14.4917 2.34675 15.0596C2.54888 15.6274 2.86554 16.1477 3.27706 16.5881C3.68859 17.0285 4.18622 17.3796 4.73908 17.6198C5.29193 17.8599 5.88823 17.9839 6.49099 17.984H14.609C15.2127 17.9854 15.8102 17.8625 16.3643 17.6231C16.9185 17.3836 17.4174 17.0327 17.8302 16.5921C18.2429 16.1515 18.5605 15.6307 18.7633 15.0621C18.9661 14.4935 19.0497 13.8893 19.009 13.287L18.217 1.55H15.775V2.243C15.775 2.92915 15.6398 3.60859 15.3773 4.24252C15.1147 4.87644 14.7298 5.45244 14.2446 5.93763C13.7594 6.42282 13.1834 6.80769 12.5495 7.07027C11.9156 7.33285 11.2361 7.468 10.55 7.468C9.86383 7.468 9.18439 7.33285 8.55047 7.07027C7.91654 6.80769 7.34054 6.42282 6.85536 5.93763C6.37017 5.45244 5.9853 4.87644 5.72272 4.24252C5.46014 3.60859 5.32499 2.92915 5.32499 2.243V1.55ZM14.675 1.55H6.42499V2.243C6.42499 3.33702 6.85959 4.38622 7.63317 5.15981C8.40676 5.9334 9.45597 6.368 10.55 6.368C11.644 6.368 12.6932 5.9334 13.4668 5.15981C14.2404 4.38622 14.675 3.33702 14.675 2.243V1.55Z" fill="#121212"/>
</svg>
